<svg xmlns="http://www.w3.org/2000/svg" viewbox="0 0 601 200" width="601" height="200"><defs></defs><g transform="matrix(1,0,0,1,0,0)">
<g>
	<path d="" fill="#000000"/>
	<path d="" fill="#000000"/>
	<path d="" fill="#000000"/>
	<path d="" fill="#000000"/>
	<path d="" fill="#000000"/>
	<path d="" fill="#000000"/>
	<path d="" fill="#000000"/>
	<path d="" fill="#000000"/>
	<path d="" fill="#000000"/>
	<path d="" fill="#000000"/>
	<path d="" fill="#000000"/>
	<path d="M-0.000000,-0.000000C-0.000000,-0.000000 301.333200,-0.000000 301.333200,-0.000000 C301.333200,-0.000000 301.333200,200.000000 301.333200,200.000000 C301.333200,200.000000 -0.000000,200.000000 -0.000000,200.000000 C-0.000000,200.000000 -0.000000,-0.000000 -0.000000,-0.000000 ZM-0.000000,-0.000000C-0.000000,-0.000000 301.333200,-0.000000 301.333200,-0.000000 C301.333200,-0.000000 301.333200,200.000000 301.333200,200.000000 C301.333200,200.000000 -0.000000,200.000000 -0.000000,200.000000 C-0.000000,200.000000 -0.000000,-0.000000 -0.000000,-0.000000 Z" fill="#036489"/>
	<path d="M33.553400,61.082800C33.553400,61.082800 59.950200,61.082800 59.950200,61.082800 C59.950200,61.082800 59.950200,128.430800 59.950200,128.430800 C59.950200,128.430800 76.312600,128.430800 76.312600,128.430800 C76.312600,128.430800 76.312600,137.742000 76.312600,137.742000 C76.312600,137.742000 33.553400,137.742000 33.553400,137.742000 C33.553400,137.742000 33.553400,128.430800 33.553400,128.430800 C33.553400,128.430800 50.006200,128.430800 50.006200,128.430800 C50.006200,128.430800 50.006200,70.394000 50.006200,70.394000 C50.006200,70.394000 33.553400,70.394000 33.553400,70.394000 C33.553400,70.394000 33.553400,61.082800 33.553400,61.082800 C33.553400,61.082800 33.553400,61.082800 33.553400,61.082800 ZM98.189400,83.502000C98.189400,83.502000 124.586200,83.502000 124.586200,83.502000 C124.586200,83.502000 124.586200,128.430800 124.586200,128.430800 C124.586200,128.430800 140.948600,128.430800 140.948600,128.430800 C140.948600,128.430800 140.948600,137.742000 140.948600,137.742000 C140.948600,137.742000 98.189400,137.742000 98.189400,137.742000 C98.189400,137.742000 98.189400,128.430800 98.189400,128.430800 C98.189400,128.430800 114.642200,128.430800 114.642200,128.430800 C114.642200,128.430800 114.642200,92.813200 114.642200,92.813200 C114.642200,92.813200 98.189400,92.813200 98.189400,92.813200 C98.189400,92.813200 98.189400,83.502000 98.189400,83.502000 C98.189400,83.502000 98.189400,83.502000 98.189400,83.502000 ZM118.891000,75.456400Q115.365400,75.456400 113.376600,73.512800 Q111.387800,71.569200 111.387800,68.134000 Q111.387800,64.698800 113.376600,62.755200 Q115.365400,60.811600 118.891000,60.811600 Q122.416600,60.811600 124.405400,62.755200 Q126.394200,64.698800 126.394200,68.134000 Q126.394200,71.569200 124.405400,73.512800 Q122.416600,75.456400 118.891000,75.456400 Q118.891000,75.456400 118.891000,75.456400 ZM177.560600,69.399600C177.560600,69.399600 177.560600,83.502000 177.560600,83.502000 C177.560600,83.502000 201.968600,83.502000 201.968600,83.502000 C201.968600,83.502000 201.968600,92.813200 201.968600,92.813200 C201.968600,92.813200 177.560600,92.813200 177.560600,92.813200 C177.560600,92.813200 177.560600,119.933200 177.560600,119.933200 Q177.560600,124.724400 179.549400,127.300800 Q181.538200,129.877200 185.335000,129.877200 Q189.312600,129.877200 191.527400,127.120000 Q193.742200,124.362800 194.827000,118.758000 Q203.595800,118.758000 203.595800,118.758000 Q203.143800,128.702000 198.352600,133.945200 Q193.561400,139.188400 184.973400,139.188400 Q176.656600,139.188400 172.136600,134.216400 Q167.616600,129.244400 167.616600,120.294800 Q167.616600,92.813200 167.616600,92.813200 C167.616600,92.813200 155.683800,92.813200 155.683800,92.813200 C155.683800,92.813200 155.683800,83.502000 155.683800,83.502000 C155.683800,83.502000 167.616600,83.502000 167.616600,83.502000 C167.616600,83.502000 167.616600,69.399600 167.616600,69.399600 C167.616600,69.399600 177.560600,69.399600 177.560600,69.399600 C177.560600,69.399600 177.560600,69.399600 177.560600,69.399600 ZM227.823000,105.107600C227.823000,105.107600 260.457400,105.107600 260.457400,105.107600 C260.457400,105.107600 257.112600,109.808400 257.112600,109.808400 Q257.112600,100.678000 253.858200,95.886800 Q250.603800,91.095600 244.366200,91.095600 Q237.586200,91.095600 233.789400,96.112800 Q229.992600,101.130000 229.992600,110.170000 Q229.992600,119.842800 233.789400,124.995600 Q237.586200,130.148400 244.637400,130.148400 Q249.247800,130.148400 252.683000,127.843200 Q256.118200,125.538000 258.468600,121.108400 Q267.779800,121.108400 267.779800,121.108400 Q266.423800,126.713200 263.214600,130.781200 Q260.005400,134.849200 255.259400,137.018800 Q250.513400,139.188400 244.637400,139.188400 Q237.043800,139.188400 231.574600,135.753200 Q226.105400,132.318000 223.212600,125.809200 Q220.319800,119.300400 220.319800,110.170000 Q220.319800,101.491600 223.257800,95.208800 Q226.195800,88.926000 231.619800,85.490800 Q237.043800,82.055600 244.366200,82.055600 Q251.327000,82.055600 256.208600,85.310000 Q261.090200,88.564400 263.711800,94.756800 Q266.333400,100.949200 266.333400,109.718000 Q266.333400,110.712400 266.288200,111.797200 Q266.243000,112.882000 266.152600,113.876400 Q227.823000,113.876400 227.823000,113.876400 C227.823000,113.876400 227.823000,105.107600 227.823000,105.107600 C227.823000,105.107600 227.823000,105.107600 227.823000,105.107600 ZM33.553400,61.082800C33.553400,61.082800 59.950200,61.082800 59.950200,61.082800 C59.950200,61.082800 59.950200,128.430800 59.950200,128.430800 C59.950200,128.430800 76.312600,128.430800 76.312600,128.430800 C76.312600,128.430800 76.312600,137.742000 76.312600,137.742000 C76.312600,137.742000 33.553400,137.742000 33.553400,137.742000 C33.553400,137.742000 33.553400,128.430800 33.553400,128.430800 C33.553400,128.430800 50.006200,128.430800 50.006200,128.430800 C50.006200,128.430800 50.006200,70.394000 50.006200,70.394000 C50.006200,70.394000 33.553400,70.394000 33.553400,70.394000 C33.553400,70.394000 33.553400,61.082800 33.553400,61.082800 C33.553400,61.082800 33.553400,61.082800 33.553400,61.082800 ZM98.189400,83.502000C98.189400,83.502000 124.586200,83.502000 124.586200,83.502000 C124.586200,83.502000 124.586200,128.430800 124.586200,128.430800 C124.586200,128.430800 140.948600,128.430800 140.948600,128.430800 C140.948600,128.430800 140.948600,137.742000 140.948600,137.742000 C140.948600,137.742000 98.189400,137.742000 98.189400,137.742000 C98.189400,137.742000 98.189400,128.430800 98.189400,128.430800 C98.189400,128.430800 114.642200,128.430800 114.642200,128.430800 C114.642200,128.430800 114.642200,92.813200 114.642200,92.813200 C114.642200,92.813200 98.189400,92.813200 98.189400,92.813200 C98.189400,92.813200 98.189400,83.502000 98.189400,83.502000 C98.189400,83.502000 98.189400,83.502000 98.189400,83.502000 ZM118.891000,75.456400Q115.365400,75.456400 113.376600,73.512800 Q111.387800,71.569200 111.387800,68.134000 Q111.387800,64.698800 113.376600,62.755200 Q115.365400,60.811600 118.891000,60.811600 Q122.416600,60.811600 124.405400,62.755200 Q126.394200,64.698800 126.394200,68.134000 Q126.394200,71.569200 124.405400,73.512800 Q122.416600,75.456400 118.891000,75.456400 Q118.891000,75.456400 118.891000,75.456400 ZM177.560600,69.399600C177.560600,69.399600 177.560600,83.502000 177.560600,83.502000 C177.560600,83.502000 201.968600,83.502000 201.968600,83.502000 C201.968600,83.502000 201.968600,92.813200 201.968600,92.813200 C201.968600,92.813200 177.560600,92.813200 177.560600,92.813200 C177.560600,92.813200 177.560600,119.933200 177.560600,119.933200 Q177.560600,124.724400 179.549400,127.300800 Q181.538200,129.877200 185.335000,129.877200 Q189.312600,129.877200 191.527400,127.120000 Q193.742200,124.362800 194.827000,118.758000 Q203.595800,118.758000 203.595800,118.758000 Q203.143800,128.702000 198.352600,133.945200 Q193.561400,139.188400 184.973400,139.188400 Q176.656600,139.188400 172.136600,134.216400 Q167.616600,129.244400 167.616600,120.294800 Q167.616600,92.813200 167.616600,92.813200 C167.616600,92.813200 155.683800,92.813200 155.683800,92.813200 C155.683800,92.813200 155.683800,83.502000 155.683800,83.502000 C155.683800,83.502000 167.616600,83.502000 167.616600,83.502000 C167.616600,83.502000 167.616600,69.399600 167.616600,69.399600 C167.616600,69.399600 177.560600,69.399600 177.560600,69.399600 C177.560600,69.399600 177.560600,69.399600 177.560600,69.399600 ZM227.823000,105.107600C227.823000,105.107600 260.457400,105.107600 260.457400,105.107600 C260.457400,105.107600 257.112600,109.808400 257.112600,109.808400 Q257.112600,100.678000 253.858200,95.886800 Q250.603800,91.095600 244.366200,91.095600 Q237.586200,91.095600 233.789400,96.112800 Q229.992600,101.130000 229.992600,110.170000 Q229.992600,119.842800 233.789400,124.995600 Q237.586200,130.148400 244.637400,130.148400 Q249.247800,130.148400 252.683000,127.843200 Q256.118200,125.538000 258.468600,121.108400 Q267.779800,121.108400 267.779800,121.108400 Q266.423800,126.713200 263.214600,130.781200 Q260.005400,134.849200 255.259400,137.018800 Q250.513400,139.188400 244.637400,139.188400 Q237.043800,139.188400 231.574600,135.753200 Q226.105400,132.318000 223.212600,125.809200 Q220.319800,119.300400 220.319800,110.170000 Q220.319800,101.491600 223.257800,95.208800 Q226.195800,88.926000 231.619800,85.490800 Q237.043800,82.055600 244.366200,82.055600 Q251.327000,82.055600 256.208600,85.310000 Q261.090200,88.564400 263.711800,94.756800 Q266.333400,100.949200 266.333400,109.718000 Q266.333400,110.712400 266.288200,111.797200 Q266.243000,112.882000 266.152600,113.876400 Q227.823000,113.876400 227.823000,113.876400 C227.823000,113.876400 227.823000,105.107600 227.823000,105.107600 C227.823000,105.107600 227.823000,105.107600 227.823000,105.107600 Z" fill="#ffffff"/>
	<path d="M301.333200,0.000000C301.333200,0.000000 601.000000,0.000000 601.000000,0.000000 C601.000000,0.000000 601.000000,200.000000 601.000000,200.000000 C601.000000,200.000000 301.333200,200.000000 301.333200,200.000000 C301.333200,200.000000 301.333200,0.000000 301.333200,0.000000 ZM301.333200,0.000000C301.333200,0.000000 601.000000,0.000000 601.000000,0.000000 C601.000000,0.000000 601.000000,200.000000 601.000000,200.000000 C601.000000,200.000000 301.333200,200.000000 301.333200,200.000000 C301.333200,200.000000 301.333200,0.000000 301.333200,0.000000 Z" fill="#ffffff"/>
	<path d="M317.319100,170.441100C317.319100,170.441100 317.319100,27.273900 317.319100,27.273900 C317.319100,27.273900 370.595400,27.273900 370.595400,27.273900 Q386.228600,27.273900 399.496250,35.090500 Q412.763900,42.907100 420.580500,56.174750 Q428.397100,69.442400 428.397100,85.075600 Q428.397100,112.639400 428.397100,112.639400 Q428.397100,128.272600 420.580500,141.540250 Q412.763900,154.807900 399.496250,162.624500 Q386.228600,170.441100 370.595400,170.441100 Q317.319100,170.441100 317.319100,170.441100 C317.319100,170.441100 317.319100,170.441100 317.319100,170.441100 ZM550.480050,31.387900Q564.159100,39.410200 572.181400,53.089250 Q580.203700,66.768300 580.203700,83.018600 Q580.203700,114.490700 580.203700,114.490700 Q580.203700,126.832700 575.061200,138.763300 Q595.014100,158.304800 595.014100,158.304800 C595.014100,158.304800 569.713000,184.634400 569.713000,184.634400 C569.713000,184.634400 550.582900,165.915700 550.582900,165.915700 Q536.389600,174.143700 520.550700,174.143700 Q504.300400,174.143700 490.621350,166.121400 Q476.942300,158.099100 468.920000,144.420050 Q460.897700,130.741000 460.897700,114.490700 Q460.897700,83.018600 460.897700,83.018600 Q460.897700,66.768300 468.920000,53.089250 Q476.942300,39.410200 490.621350,31.387900 Q504.300400,23.365600 520.550700,23.365600 Q536.801000,23.365600 550.480050,31.387900 Q550.480050,31.387900 550.480050,31.387900 ZM498.335100,114.490700Q498.335100,123.541500 504.814650,130.123900 Q511.294200,136.706300 520.345000,136.706300 Q529.395800,136.706300 535.875350,130.123900 Q542.354900,123.541500 542.354900,114.490700 Q542.354900,83.018600 542.354900,83.018600 Q542.354900,73.967800 535.875350,67.591100 Q529.395800,61.214400 520.345000,61.214400 Q511.294200,61.214400 504.814650,67.591100 Q498.335100,73.967800 498.335100,83.018600 Q498.335100,114.490700 498.335100,114.490700 C498.335100,114.490700 498.335100,114.490700 498.335100,114.490700 ZM317.319100,170.441100C317.319100,170.441100 317.319100,27.273900 317.319100,27.273900 C317.319100,27.273900 370.595400,27.273900 370.595400,27.273900 Q386.228600,27.273900 399.496250,35.090500 Q412.763900,42.907100 420.580500,56.174750 Q428.397100,69.442400 428.397100,85.075600 Q428.397100,112.639400 428.397100,112.639400 Q428.397100,128.272600 420.580500,141.540250 Q412.763900,154.807900 399.496250,162.624500 Q386.228600,170.441100 370.595400,170.441100 Q317.319100,170.441100 317.319100,170.441100 C317.319100,170.441100 317.319100,170.441100 317.319100,170.441100 ZM550.480050,31.387900Q564.159100,39.410200 572.181400,53.089250 Q580.203700,66.768300 580.203700,83.018600 Q580.203700,114.490700 580.203700,114.490700 Q580.203700,126.832700 575.061200,138.763300 Q595.014100,158.304800 595.014100,158.304800 C595.014100,158.304800 569.713000,184.634400 569.713000,184.634400 C569.713000,184.634400 550.582900,165.915700 550.582900,165.915700 Q536.389600,174.143700 520.550700,174.143700 Q504.300400,174.143700 490.621350,166.121400 Q476.942300,158.099100 468.920000,144.420050 Q460.897700,130.741000 460.897700,114.490700 Q460.897700,83.018600 460.897700,83.018600 Q460.897700,66.768300 468.920000,53.089250 Q476.942300,39.410200 490.621350,31.387900 Q504.300400,23.365600 520.550700,23.365600 Q536.801000,23.365600 550.480050,31.387900 Q550.480050,31.387900 550.480050,31.387900 ZM498.335100,114.490700Q498.335100,123.541500 504.814650,130.123900 Q511.294200,136.706300 520.345000,136.706300 Q529.395800,136.706300 535.875350,130.123900 Q542.354900,123.541500 542.354900,114.490700 Q542.354900,83.018600 542.354900,83.018600 Q542.354900,73.967800 535.875350,67.591100 Q529.395800,61.214400 520.345000,61.214400 Q511.294200,61.214400 504.814650,67.591100 Q498.335100,73.967800 498.335100,83.018600 Q498.335100,114.490700 498.335100,114.490700 C498.335100,114.490700 498.335100,114.490700 498.335100,114.490700 Z" fill="#036489"/>
	<path d="M-0.000000,-0.000000C-0.000000,-0.000000 601.000000,-0.000000 601.000000,-0.000000 C601.000000,-0.000000 601.000000,200.000000 601.000000,200.000000 C601.000000,200.000000 -0.000000,200.000000 -0.000000,200.000000 C-0.000000,200.000000 -0.000000,-0.000000 -0.000000,-0.000000 ZM-0.000000,-0.000000C-0.000000,-0.000000 601.000000,-0.000000 601.000000,-0.000000 C601.000000,-0.000000 601.000000,200.000000 601.000000,200.000000 C601.000000,200.000000 -0.000000,200.000000 -0.000000,200.000000 C-0.000000,200.000000 -0.000000,-0.000000 -0.000000,-0.000000 Z" fill="none" stroke="#036489" stroke-width="5"/>
</g></g></svg>